# xmcd CD database file
# Copyright (C) 1993-1998 Ti Kan
#
# Track frame offsets:
#  200
#  20650
#  33970
#  51870
#  67205
#  81182
#  97190
#  110555
#  128110
#  142610
#
# Disc length: 2166 seconds
#
# Revision: 1
# Processed by: cddbd v1.4b41PL1 Copyright (c) Steve Scherf et al.
# Submitted via: CDWizzard Release:4.35
#
DISCID=8908740a
DTITLE=Ted Turner - Steal Away
DYEAR=1900
DGENRE=
TTITLE0=My Key Jumpback In My Hand
TTITLE1=Home At Last
TTITLE2=The Wolf
TTITLE3=Feed The Flame
TTITLE4=I Can't Take No More
TTITLE5=Crumb In Your Bread Box Of Love
TTITLE6=Steal Away
TTITLE7=Get Your Own Woman
TTITLE8=Only The Lonely Knows
TTITLE9=Torch Of Love
EXTD=
EXTT0=
EXTT1=
EXTT2=
EXTT3=
EXTT4=
EXTT5=
EXTT6=
EXTT7=
EXTT8=
EXTT9=
PLAYORDER=
